<?xml version="1.0" standalone="no"?>
<!DOCTYPE svg PUBLIC "-//W3C//DTD SVG 20010904//EN"
 "http://www.w3.org/TR/2001/REC-SVG-20010904/DTD/svg10.dtd">
<svg version="1.0" xmlns="http://www.w3.org/2000/svg"
 width="360.000000pt" height="360.000000pt" viewBox="0 0 360.000000 360.000000"
 preserveAspectRatio="xMidYMid meet">

<g transform="translate(0.000000,360.000000) scale(0.100000,-0.100000)"
fill="#000000" stroke="none">
<path d="M1681 3165 c-136 -38 -263 -140 -320 -256 -72 -148 -66 -277 27 -539
l37 -105 8 115 c9 143 29 228 61 256 22 20 294 119 303 111 2 -2 -8 -12 -23
-21 -14 -10 -24 -20 -21 -22 2 -3 69 11 147 31 78 20 144 34 146 32 3 -2 -14
-17 -36 -32 -22 -15 -40 -30 -40 -33 0 -4 77 4 129 14 26 5 27 4 23 -38 -2
-34 -1 -39 8 -25 31 48 42 3 49 -198 l6 -160 48 131 c26 72 50 147 54 165 3
19 13 44 21 56 14 22 8 80 -14 137 -5 14 -4 17 5 12 9 -6 11 1 6 31 -18 109
-79 211 -148 246 -26 13 -58 20 -95 20 -34 -1 -63 5 -72 13 -9 7 -41 25 -72
39 -71 33 -164 40 -237 20z"/>
<path d="M1215 1682 c-290 -118 -321 -136 -370 -212 -31 -49 -55 -128 -125
-414 -52 -211 -152 -568 -175 -629 -7 -16 6 -17 187 -17 l195 0 104 225 c57
123 107 225 111 225 4 0 7 -100 6 -223 l-2 -222 657 -3 657 -2 1 232 0 233 32
-70 c17 -38 66 -142 107 -230 l76 -160 192 -3 c106 -1 192 0 192 3 0 3 -21 74
-46 158 -25 83 -83 300 -129 480 -46 180 -95 351 -108 380 -30 66 -74 110
-146 146 -63 32 -492 204 -496 199 -2 -2 -25 -70 -51 -153 -27 -82 -50 -152
-52 -155 -2 -3 -15 8 -28 23 -16 19 -25 24 -28 15 -2 -7 -41 -251 -86 -543
-45 -291 -84 -532 -86 -534 -2 -2 -5 2 -8 10 -5 17 -167 1060 -166 1073 0 6
-13 -3 -30 -19 -22 -21 -31 -25 -34 -14 -2 8 -16 52 -31 99 -41 130 -67 200
-74 200 -3 -1 -114 -45 -246 -98z"/>
</g>
</svg>
