<?xml version="1.0" encoding="UTF-8"?>
<svg version="1.1" viewBox="0 0 1600 1600" width="1280" height="1280" xmlns="http://www.w3.org/2000/svg">
<path transform="translate(271 648)" d="m0 0c1.36-0.01 1.36-0.01 2.74-0.02h2.96c1-0.01 2.01-0.01 3.04-0.01 2.13-0.01 4.25-0.01 6.38-0.01 3.25 0 6.5-0.02 9.75-0.04 2.07 0 4.13 0 6.2-0.01 1.46-0.01 1.46-0.01 2.94-0.02 5.87 0.02 10.1 0.22 14.8 4.19 2.52 2.97 2.87 5.43 2.88 9.19 0 0.84 0.01 1.68 0.01 2.54v2.78c0 0.96 0 1.93 0.01 2.93 0.01 2.1 0.01 4.21 0.01 6.31 0.01 3.33 0.03 6.66 0.05 9.98 0.05 9.47 0.1 18.9 0.11 28.4 0.01 5.79 0.04 11.6 0.08 17.4 0.02 2.21 0.02 4.41 0.02 6.62 0 3.08 0.02 6.17 0.05 9.26-0.01 0.91-0.02 1.82-0.02 2.76 0.06 4.03 0.22 6.37 2.27 9.92 5.19 4.59 10.3 4.31 16.9 4.29 0.97 0.01 1.93 0.01 2.93 0.02 3.18 0.01 6.37 0.01 9.55 0.01 2.22 0 4.44 0 6.66 0.01 4.65 0.01 9.29 0.01 13.9 0 5.95 0 11.9 0.01 17.9 0.04 4.58 0.01 9.16 0.01 13.7 0.01 2.19 0 4.39 0 6.58 0.01 3.07 0.02 6.14 0.01 9.21 0 0.9 0.01 1.81 0.01 2.73 0.02 5.47-0.04 9.4-0.62 14.2-3.39 3.84-4.23 3.42-8.95 3.38-14.4 0.01-0.93 0.01-1.87 0.02-2.83 0.01-2.03 0.01-4.06 0.01-6.08-0.01-3.22 0.01-6.43 0.03-9.64 0.03-6.82 0.05-13.6 0.06-20.5 0.01-7.9 0.03-15.8 0.08-23.7 0.01-3.16 0.01-6.32 0-9.48 0.01-1.95 0.02-3.89 0.03-5.84-0.01-1.31-0.01-1.31-0.02-2.64 0.06-6.1 0.99-11 4.91-15.8 2.78-2.08 5.41-2.25 8.75-2.27 0.85-0.01 1.71-0.01 2.59-0.02h2.79c1.43-0.01 1.43-0.01 2.89-0.01 2.02-0.01 4.04-0.01 6.06-0.01 3.07 0 6.15-0.02 9.22-0.04 1.96 0 3.93 0 5.9-0.01 1.36-0.01 1.36-0.01 2.76-0.02 12.6 0.05 12.6 0.05 17.2 3.53 1.73 2.28 1.68 3.67 1.69 6.52 0.01 1.48 0.01 1.48 0.03 3-0.01 1.64-0.01 1.64-0.02 3.31 0.01 1.16 0.01 2.32 0.02 3.52 0.01 3.22 0.01 6.44 0.01 9.66-0.01 3.47 0.01 6.95 0.02 10.4 0.02 6.8 0.03 13.6 0.03 20.4-0.01 5.53 0 11.1 0.01 16.6v4.78 2.4c0.02 15 0.02 30 0.02 45-0.01 13.7 0.01 27.4 0.04 41.2 0.04 14.1 0.05 28.2 0.05 42.2 0 7.91 0 15.8 0.03 23.7 0.02 6.73 0.02 13.5 0 20.2-0.01 3.43-0.01 6.87 0.01 10.3 0.02 3.73 0.01 7.45-0.01 11.2 0.01 1.09 0.02 2.18 0.04 3.3-0.09 7.31-0.09 7.31-3.08 11.2-3.78 2.68-6.53 2.96-11.1 3-0.88 0.01-1.77 0.02-2.67 0.03-1.42 0-1.42 0-2.87 0.01-0.98 0-1.96 0.01-2.96 0.02-2.07 0.01-4.14 0.01-6.21 0.02-3.16 0.01-6.32 0.04-9.48 0.07-2.01 0-4.02 0.01-6.03 0.01-0.95 0.02-1.89 0.03-2.86 0.04-5.19-0.02-9.04-0.27-13.4-3.36-2.93-3.66-3.4-6.54-3.52-11.2-0.03-1.29-0.07-2.57-0.1-3.9-0.03-1.44-0.05-2.89-0.07-4.33-0.04-1.53-0.07-3.05-0.11-4.58-0.22-10.4-0.21-20.7-0.16-31.1 0.01-2.14 0.01-4.27 0.02-6.4 0.03-6.44 0.06-12.9 0.13-19.3 0.02-2.05 0.03-4.11 0.04-6.17 0.02-2.54 0.04-5.09 0.08-7.64 0.02-7.14-0.21-12.6-4.81-18.4-2.78-2.08-5.4-2.25-8.74-2.27-0.86 0-1.73-0.01-2.62-0.01-0.94 0-1.89 0-2.86-0.01-1 0-1.99-0.01-3.02-0.01-3.31-0.02-6.61-0.02-9.91-0.03-2.3 0-4.59-0.01-6.88-0.02-4.81-0.01-9.62-0.01-14.4-0.01-6.17-0.01-12.3-0.03-18.5-0.06-4.74-0.02-9.47-0.03-14.2-0.03-2.27 0-4.55-0.01-6.82-0.02-3.18-0.02-6.36-0.02-9.54-0.01-0.94-0.01-1.88-0.02-2.85-0.03-4.82 0.03-8.32 0.09-12.1 3.39-3.84 4.45-3.42 9.15-3.37 14.7-0.01 0.98-0.01 1.95-0.01 2.96-0.01 2.11-0.01 4.23 0 6.35 0.01 3.35-0.01 6.7-0.02 10-0.04 9.52-0.04 19-0.04 28.6 0 5.82-0.02 11.6-0.05 17.5-0.01 3.3 0 6.6 0.01 9.89 0 2.03-0.01 4.06-0.03 6.08 0.02 1.37 0.02 1.37 0.03 2.77-0.07 6.63-1.75 10.3-6.52 15.1-3.64 1.34-7.34 1.11-11.2 1.09h-2.06l-6.51-0.03c-1.48-0.01-2.95-0.01-4.43-0.02-3.61-0.01-7.22-0.02-10.8-0.04 0.49-0.45 0.98-0.9 1.49-1.37 1.73-1.54 1.73-1.54 1.65-3.86-0.11-0.79-0.22-1.58-0.33-2.4-0.15-1.19-0.15-1.19-0.29-2.41-0.26-0.97-0.26-0.97-0.52-1.96-2.99-1.5-5.73-1.15-9.06-1.18-1.43-0.02-2.87-0.05-4.3-0.07-2.26-0.04-4.52-0.07-6.78-0.08-2.18-0.02-4.36-0.06-6.54-0.1-1.31-0.02-2.62-0.03-3.96-0.04-3.36-0.53-3.36-0.53-5.8-2.38-2.1-2.89-2.01-4.66-1.56-8.15l2-3c1.96-0.39 1.96-0.39 4.38-0.41 0.91-0.01 1.82-0.02 2.75-0.04h2.98c1.01-0.01 2.02-0.02 3.06-0.04 3.23-0.04 6.47-0.06 9.7-0.08s6.45-0.05 9.68-0.09c2.01-0.02 4.02-0.04 6.03-0.04 1.37-0.02 1.37-0.02 2.77-0.03 0.8-0.01 1.61-0.01 2.43-0.02 2.51-0.29 4.09-0.89 6.22-2.25 1.59-2.78 1.59-2.78 2-6-1.31-2.95-2.1-4.55-5-6-1.71-0.1-3.42-0.13-5.12-0.13-1.07 0-2.14-0.01-3.24-0.01-1.16 0-2.32 0-3.51-0.01-2.44-0.01-4.87-0.03-7.31-0.05-3.85-0.03-7.71-0.05-11.6-0.06-3.71 0-7.42-0.03-11.1-0.07-1.16 0-2.31 0.01-3.5 0.02-7.98-0.12-7.98-0.12-11.4-3.11-1.23-2.58-1.23-2.58-1.17-4.65 1.17-2.41 2.01-4.02 3.94-5.93 2.7-0.43 5.02-0.61 7.73-0.61 0.75-0.02 1.5-0.04 2.27-0.05 2.4-0.05 4.79-0.07 7.18-0.09 1.63-0.03 3.25-0.06 4.88-0.09 3.98-0.08 7.96-0.13 11.9-0.16 1.6-4.23 2.33-6.16 0.62-10.4-0.54-0.85-1.07-1.69-1.62-2.56-1.65-0.01-1.65-0.01-3.34-0.02-4.08-0.02-8.17-0.07-12.2-0.14-1.77-0.02-3.54-0.03-5.3-0.04-2.55-0.01-5.09-0.05-7.63-0.1-0.79 0.01-1.58 0.01-2.39 0.01-3.9-0.1-5.72-0.37-8.63-3.06-1.46-2.65-1.46-2.65-1.34-5.84 0.88-2.81 0.88-2.81 2.88-4.81 2.44-0.27 2.44-0.27 5.54-0.29 1.17-0.02 2.33-0.03 3.52-0.04 1.9-0.01 1.9-0.01 3.83-0.02 1.97-0.02 3.95-0.04 5.92-0.07 3.48-0.03 6.96-0.06 10.4-0.08 4.13-0.04 8.26-0.07 12.4-0.12 2.57-0.03 5.15-0.05 7.72-0.06 1.18-0.01 2.35-0.02 3.56-0.04 1.54-0.01 1.54-0.01 3.12-0.02 3.28-0.3 5.91-0.97 8.95-2.26 2.31-2.82 2.31-2.82 1.81-6-0.85-3.16-1.28-4.08-3.81-6-2.33-0.44-2.33-0.44-4.95-0.34h-3.04c-1.09 0.01-2.17 0.02-3.29 0.03-2.29 0-4.58-0.01-6.87-0.02-3.62 0-7.24 0.01-10.8 0.04-3.49 0.02-6.98 0.01-10.5-0.02-1.63 0.03-1.63 0.03-3.28 0.06-7.36-0.07-7.36-0.07-10.1-2.14-1.4-1.66-1.4-1.66-3.17-4.61 1.07-2.92 1.77-4.78 4-7 2.44-0.23 4.78-0.33 7.23-0.35 0.72-0.01 1.44-0.03 2.18-0.04 2.3-0.05 4.6-0.08 6.9-0.11 3.02-0.05 6.03-0.1 9.05-0.16 0.69-0.01 1.38-0.01 2.09-0.02 5.1-0.1 8.87-0.65 12.6-4.32-0.22-4.64-0.22-4.64-2.24-8.71-2.36-1.73-3.83-1.66-6.74-1.65-1.01 0-2.02-0.01-3.06-0.01-1.09 0.01-2.18 0.02-3.31 0.03-2.3-0.01-4.6-0.03-6.9-0.04-3.63 0-7.27 0-10.9 0.01-3.51 0.01-7.01-0.01-10.5-0.03-1.64 0.02-1.64 0.02-3.31 0.04-2.76-0.03-5.32-0.09-8.03-0.64-2.26-2.34-2.26-2.34-3-5 0.76-3.54 1.43-5.44 4-8 2.93-0.28 2.93-0.28 6.65-0.31 1.35-0.03 2.69-0.05 4.04-0.08 2.12-0.03 4.25-0.05 6.37-0.07 2.05-0.02 4.1-0.06 6.15-0.1 1.23-0.02 2.46-0.03 3.72-0.04 3.02-0.16 3.02-0.16 4.97-1.71 1.81-2.8 1.33-5.46 1.1-8.69l-1-3c-0.86-0.01-1.72-0.02-2.6-0.03-3.19-0.05-6.38-0.11-9.57-0.18-1.38-0.03-2.76-0.05-4.14-0.07-1.99-0.02-3.97-0.07-5.96-0.12-1.19-0.02-2.39-0.04-3.62-0.06-3.69-0.64-4.85-1.62-7.11-4.54-1.14-3.02-1.32-4.3 0-7.25 4.64-4.07 12.6-2.87 18.6-2.8 1.88 0.01 3.75 0.02 5.62 0.02 0.97 0.01 1.93 0.01 2.92 0.02 7.42 0.02 14.8-0.07 22.3-0.2 1.87-0.03 3.75-0.05 5.62-0.07 2.76-0.02 5.52-0.06 8.27-0.12h2.54c4.53-0.09 4.53-0.09 8.26-2.42 1.43-3.3 0.77-5.75-0.05-9.18-2.41-2.41-3.06-2.29-6.35-2.42-0.91-0.04-1.81-0.08-2.74-0.12-0.98-0.03-1.96-0.06-2.98-0.09-1.01-0.04-2.02-0.08-3.06-0.12-8.93-0.31-17.9-0.3-26.8-0.13-1 0.01-1.99 0.02-3.02 0.04-0.88 0.01-1.76 0.03-2.67 0.05-2.64-0.24-4.2-0.71-6.38-2.21-0.98-3.52-1.56-5.83 0.03-9.2 2.94-2.7 5.42-2.31 9.34-2.37 6.85-0.09 6.85-0.09 12.6-3.43 0.81-2.87 0.33-4.97 0-8-2.48-2.48-3.32-2.29-6.75-2.42-0.97-0.04-1.95-0.08-2.95-0.12-1.05-0.03-2.1-0.06-3.18-0.09-1.07-0.04-2.14-0.08-3.25-0.12-7.79-0.25-15.6-0.34-23.4-0.22-11.6 0.13-11.6 0.13-15.4-2.22-1.6-2.74-1.44-4.71-1.06-7.81 1.24-2.16 1.24-2.16 3-4 2.09-0.51 2.09-0.51 4.53-0.52 0.91-0.01 1.83-0.03 2.77-0.04 1.47 0.01 1.47 0.01 2.98 0.02 1.01-0.02 2.03-0.03 3.07-0.04 3.24-0.03 6.47-0.04 9.71-0.05 3.24-0.02 6.48-0.04 9.72-0.07 2.02-0.02 4.04-0.03 6.05-0.03 0.91-0.01 1.83-0.01 2.76-0.02h2.44c2.2-0.08 2.2-0.08 3.97-2.25 0.21-4.34 0.09-7.83-1-12-0.9 0.01-1.79 0.03-2.71 0.04-3.32 0.05-6.63 0.09-9.95 0.12-1.43 0.02-2.87 0.04-4.3 0.06-2.06 0.04-4.13 0.05-6.19 0.07-1.86 0.02-1.86 0.02-3.76 0.05-3.09-0.34-3.09-0.34-5-1.68-1.72-2.62-1.47-4.61-1.09-7.66 1.22-2.16 1.22-2.16 3-4 2.17-0.52 2.17-0.52 4.72-0.53 0.96-0.02 1.92-0.04 2.91-0.05h3.13c1.07-0.01 2.14-0.03 3.23-0.04 3.42-0.04 6.84-0.06 10.3-0.07 3.4-0.03 6.8-0.07 10.2-0.1 2.11-0.03 4.23-0.04 6.35-0.05 9.14 0.41 9.14 0.41 17.2-2.85 1.35-3.13 0.84-5.07 0-8.31-0.5-0.99-0.5-0.99-1-2-6.74-1.32-13.6-1.14-20.4-1.14-3.51-0.01-7.01-0.04-10.5-0.06-4.44-0.03-8.88-0.06-13.3-0.06-3.6 0.01-7.21-0.02-10.8-0.06-1.37-0.01-2.74-0.01-4.11 0-1.91 0.01-3.82-0.02-5.73-0.04-1.09 0-2.18-0.01-3.29-0.01-2.82-0.63-2.82-0.63-5.21-3.01-1.61-2.62-1.61-2.62-1.61-5.25 1.25-2.99 2.17-3.78 5-5.37 2.69-0.26 5.14-0.36 7.82-0.3 1.13 0.01 1.13 0.01 2.27 0.02 2.39 0.01 4.77 0.05 7.16 0.09 1.62 0.01 3.24 0.03 4.86 0.04 3.96 0.03 7.92 0.08 11.9 0.15 0.12-0.78 0.25-1.56 0.38-2.36 0.77-3.31 2.03-4.51 4.62-6.64 2.82-0.94 4.56-1.14 7.48-1.15z" fill="#000202"/>
<path transform="translate(572 715)" d="m0 0h3.26c1.13-0 2.26 0 3.43 0.01 1.13-0.01 2.26-0.01 3.43-0.01h3.26 3.01c2.3 0.13 2.3 0.13 3.3 1.13 0.09 1.38 0.11 2.77 0.11 4.16v2.66c0 0.96-0.01 1.92-0.01 2.91-0.01 0.97-0.01 1.95-0.01 2.95 0 3.13-0.02 6.26-0.03 9.39-0.01 2.11-0.01 4.23-0.01 6.34-0.01 5.2-0.03 10.4-0.05 15.6 4.49-1.49 8.76-3.48 12-7 1.04-2.92 1.09-5.71 1.12-8.8 0.03-0.83 0.07-1.67 0.1-2.53 0.11-2.66 0.16-5.32 0.21-7.98 0.07-1.81 0.13-3.62 0.2-5.42 0.16-4.42 0.27-8.84 0.37-13.3 3.39-0.03 6.79-0.04 10.2-0.06 0.95-0.01 1.91-0.02 2.9-0.03h2.83c1.28-0.01 1.28-0.01 2.58-0.02 2.5 0.11 2.5 0.11 7.5 1.11v92c-2.61 1.31-4.53 1.12-7.45 1.1-1.61 0-1.61 0-3.26-0.01-1.13-0.01-2.26-0.02-3.42-0.02-1.7-0.01-1.7-0.01-3.44-0.02-2.81-0.01-5.62-0.03-8.43-0.05-1.22-4.75-1.13-9.37-1.1-14.2v-2.66c0.01-2.81 0.02-5.61 0.03-8.41 0.01-1.9 0.01-3.81 0.02-5.71 0.01-4.66 0.03-9.32 0.05-14-4.12 1.99-7.44 4.14-11 7h-2v38h-26c-0.03-12.1-0.04-24.2-0.05-36.3-0.01-5.62-0.02-11.2-0.03-16.9-0.01-5.42-0.01-10.8-0.02-16.3 0-2.07 0-4.15-0.01-6.22-0.01-2.89-0.01-5.78-0.01-8.68 0-0.86 0-1.73-0.01-2.62 0.02-7.15 0.02-7.15 6.44-7.16z" fill="#000202"/>
<path transform="translate(684 715)" d="m0 0c1.49-0.01 2.98 0.01 4.46 0.04 0.79 0.01 1.58 0.01 2.39 0.01 1.67 0.01 3.33 0.03 4.99 0.06 2.55 0.05 5.1 0.06 7.65 0.08 1.62 0.01 3.23 0.03 4.85 0.04 1.14 0.01 1.14 0.01 2.31 0.02 7.71 0.14 7.71 0.14 10.4 2.93 0.57 0.69 1.14 1.39 1.73 2.1 2.65 3.14 5.35 5.68 8.62 8.19 1.2 2.4 1.13 3.89 1.13 6.56 0 0.95 0.01 1.9 0.01 2.88v3.13 3.24c0 2.27 0 4.55-0.01 6.82 0 3.43 0 6.86 0.01 10.3 0 6.36-0.05 12.7-0.14 19.1-0.01 0.86-0.01 1.72-0.02 2.61-0.03 2.24-0.1 4.47-0.18 6.71-0.03 1.2-0.07 2.39-0.1 3.63-0.9 3.93-2.52 5.32-5.64 7.8-0.89 0.55-1.79 1.1-2.71 1.67-2.53 1.71-3.16 2.85-4.35 5.58-4.97 2.49-12.6 1.36-18.2 1.41-1.81 0.02-3.61 0.05-5.41 0.1-2.6 0.06-5.2 0.09-7.79 0.11-0.81 0.03-1.61 0.06-2.44 0.09-2.29-0.01-2.29-0.01-6.2-0.71-1.97-2.54-1.97-2.54-2.82-4.21-1.56-2.37-3.56-3.59-5.85-5.25-4.04-3.51-5.03-5.93-5.52-11.2-0.08-2.65-0.1-5.27-0.07-7.91-0.01-1.42-0.03-2.84-0.04-4.26-0.03-2.97-0.01-5.93 0.02-8.9 0.04-3.78-0.01-7.54-0.09-11.3-0.05-2.93-0.04-5.86-0.02-8.79 0-1.39-0.01-2.77-0.05-4.16-0.14-7.18 0.3-12.4 5.33-17.7 2.29-2.17 4.71-4.19 7.11-6.24 0.54-0.75 1.07-1.5 1.63-2.27 1.37-1.73 1.37-1.73 4.97-2.2zm8.4 5.47v84c4.72 0.5 4.72 0.5 6.81-1.38 1.39-1.55 1.39-1.55 1.19-3.62 2.48-0.99 2.48-0.99 5-2 0.12-8.93 0.21-17.8 0.26-26.8 0.03-4.15 0.06-8.29 0.12-12.4 0.05-4 0.08-8 0.1-12 0.01-1.53 0.02-3.05 0.05-4.58 0.04-2.14 0.04-4.27 0.04-6.41 0.01-1.22 0.02-2.44 0.03-3.69-0.32-3.28-0.32-3.28-3-5.38-0.86-0.57-1.72-1.14-2.6-1.72-0.68-0.74-1.36-1.49-2.06-2.25-2-2.2-2-2.2-5.94-1.75z" fill="#000202"/>
<path transform="translate(860 715)" d="m0 0c0.71 0 1.43 0.01 2.16 0.01 1.03 0 1.03 0 2.07-0.01 3.77 0.01 7.46 0.21 11.2 0.65 0.79 0.09 1.59 0.18 2.41 0.27 0.6 0.07 1.2 0.14 1.81 0.22 0.01 1.31 0.01 2.62 0.02 3.97 0.02 4.87 0.07 9.74 0.14 14.6 0.02 2.1 0.03 4.21 0.04 6.32 0.01 3.03 0.05 6.05 0.1 9.08-0.01 0.94-0.01 1.88-0.01 2.86 0.04 5.41 0.04 5.41 3.16 9.67 0.84 0.49 1.69 0.98 2.55 1.49 0.78 0.86 0.78 0.86 1.57 1.75 1.62 1.68 1.62 1.68 5.43 1.25 0.27-0.62 0.54-1.24 0.82-1.88 1.18-2.12 1.18-2.12 4.18-4.12 1.01-2.76 1.15-5.4 1.21-8.31 0.02-0.84 0.04-1.68 0.06-2.55 0.02-0.9 0.03-1.8 0.05-2.72 0.02-0.93 0.04-1.85 0.06-2.81 0.07-2.95 0.13-5.91 0.19-8.86 0.04-2.01 0.08-4.01 0.13-6.02 0.1-4.91 0.21-9.82 0.3-14.7 8.72-0.15 17.3 0.28 26 1 0.03 4.12 0.05 8.25 0.06 12.4 0 1.41 0.01 2.81 0.02 4.21 0.12 19.9 0.12 19.9-3.01 23.9-1.01 0.82-2.02 1.65-3.07 2.5-0.77 0.67-1.54 1.35-2.34 2.04-4.67 3.97-7.51 6.1-13.7 6.96-0.03 1.81-0.03 1.81-0.07 3.65l-0.3 13.4c-0.04 1.93-0.08 3.87-0.12 5.8-0.06 2.77-0.12 5.55-0.19 8.32-0.02 1.3-0.02 1.3-0.05 2.63-0.15 6.1-0.15 6.1-1.27 7.22-1.85 0.08-3.71 0.1-5.56 0.09h-3.07c-1.3-0.01-2.59-0.02-3.93-0.03-6.15-0.03-6.15-0.03-12.4-0.06v-41c-2.97-0.66-5.94-1.32-9-2-2.44-1.81-4.35-3.37-6.43-5.5-0.52-0.5-1.03-1-1.56-1.52-1.35-1.31-2.68-2.64-4.01-3.98l-2-2c-0.18-2.79-0.25-5.47-0.23-8.26v-2.47c0.01-1.73 0.02-3.45 0.03-5.18 0.02-2.65 0.02-5.3 0.02-7.95 0-1.67 0.01-3.35 0.02-5.02v-2.42c0.05-6.37 0.08-6.83 6.5-6.84z" fill="#000202"/>
<path transform="translate(772 715)" d="m0 0h2.51c0.87-0 1.74 0 2.63 0.01 1.28-0.01 1.28-0.01 2.58-0.01h2.53 2.3c2.82 0.16 5.62 0.67 8.41 1.13v88c2.97-0.49 2.97-0.49 6-1 0.01-0.73 0.03-1.47 0.04-2.23 0.4-8.09 0.4-8.09 3.39-11.7 0.85-0.69 1.7-1.37 2.57-2.07l2-4h19c0.15 4.3 0.15 4.3 0.31 8.69 0.05 0.89 0.09 1.79 0.14 2.71 0.07 4.34 0.02 6.04-2.85 9.5-0.86 0.69-1.72 1.39-2.6 2.1l-2 3c-2.22 0.36-2.22 0.36-5 0.34h-3.16c-1.12-0.01-2.25-0.03-3.41-0.04-1.73-0.01-1.73-0.01-3.49-0.02-3.69-0.01-7.38-0.05-11.1-0.09-2.49-0.01-4.99-0.03-7.49-0.04-6.13-0.03-12.2-0.08-18.4-0.15-0.03-12.1-0.04-24.2-0.05-36.3-0.01-5.62-0.02-11.2-0.03-16.9-0.01-5.42-0.02-10.8-0.02-16.3 0-2.07 0-4.15-0.01-6.22-0.01-2.89-0.01-5.78-0.01-8.68 0-0.86 0-1.73-0.01-2.62 0.02-7.15 0.02-7.15 5.17-7.16z" fill="#000202"/>
<path transform="translate(169 800)" d="m0 0c1.57-0.02 1.57-0.02 3.18-0.04 1.13 0 2.26 0.01 3.42 0.01 1.75-0.01 1.75-0.01 3.53-0.02 2.46 0 4.92 0 7.38 0.01 3.77 0.01 7.53-0.02 11.3-0.05 2.39-0.01 4.78-0.01 7.17 0 1.13-0.01 2.26-0.02 3.42-0.04 1.05 0.01 2.1 0.02 3.19 0.03h2.79c3.23 0.66 4.41 2.01 6.48 4.5 0.94 1.94 0.94 1.94 1 4-1.16 2.59-1.16 2.59-3 5-2.43 0.63-2.43 0.63-5.34 0.62-1.64 0.01-1.64 0.01-3.31 0.03-1.18-0.02-2.36-0.04-3.57-0.05h-3.67c-2.55-0.01-5.11-0.03-7.67-0.05-3.93-0.05-7.85-0.05-11.8-0.04-2.49-0.01-4.97-0.02-7.45-0.04h-3.57c-1.64-0.02-1.64-0.02-3.31-0.05-1.44-0.01-1.44-0.01-2.91-0.02-2.43-0.4-2.43-0.4-4.24-1.7-2-2.84-1.55-5.36-1.19-8.7 2.3-3.24 4.29-3.38 8.14-3.4z" fill="#000202"/>
<path transform="translate(951,842)" d="m0 0c5.04-0.15 5.04-0.15 10.2-0.31 1.57-0.07 1.57-0.07 3.18-0.14 4.54-0.07 6.94-0.01 10.8 2.57 2.18 3.4 2.37 5.2 2.15 9.19-0.07 1.61-0.07 1.61-0.13 3.24-0.06 0.81-0.12 1.62-0.18 2.45-2.31 0.99-4.62 1.98-7 3 2.31 0.99 4.62 1.98 7 3v14h-9c-1.32-4.96-1.09-9.91-1-15l-5 1-1 14h-10v-37zm10 3v15h6c0.2-1.94 0.38-3.87 0.56-5.81 0.11-1.08 0.21-2.16 0.32-3.27 0.3-2.98 0.3-2.98-0.88-5.92h-6z" fill="#000202"/>
<path transform="translate(821,842)" d="m0 0c3.38-0.08 6.76-0.16 10.2-0.25 1.06-0.04 2.12-0.07 3.21-0.11 6.93-0.08 6.93-0.08 10.2 2.25 2.97 4.5 3.2 8.8 2.39 14.1-2.38 2-2.38 2-5 3l-2 2c0.97 0.31 1.94 0.62 2.94 0.94 3.06 1.06 3.06 1.06 4.06 2.06 0.07 2.19 0.08 4.38 0.06 6.56-0.01 1.2-0.02 2.4-0.02 3.63-0.02 0.93-0.03 1.86-0.04 2.81h-10v-15h-6v15h-10v-37zm10 2v16h6c0.03-2.48 0.05-4.96 0.06-7.44 0.01-0.7 0.02-1.41 0.03-2.14 0.01-1.81-0.04-3.61-0.09-5.42l-1-1h-5z" fill="#000202"/>
<path transform="translate(625,842)" d="m0 0c3.25 1.63 4.89 2.63 7.38 5.04 0.92 0.87 0.92 0.87 1.85 1.76 1.27 1.22 2.54 2.45 3.81 3.68 0.61 0.57 1.22 1.15 1.84 1.75 0.55 0.53 1.1 1.06 1.67 1.61 1.4 1.37 1.4 1.37 3.45 1.16v-2l-4-2v-11h10v37h-10v-22c-2.97-0.5-2.97-0.5-6-1v23h-10v-37z" fill="#000202"/>
<path transform="translate(182,743)" d="m0 0c2.04-0.39 2.04-0.39 4.59-0.42 0.95-0.02 1.9-0.03 2.88-0.05h3.12c1.58-0.01 1.58-0.01 3.2-0.02 2.23-0.01 4.47-0.02 6.7-0.01 3.43 0 6.86-0.04 10.3-0.09h6.51c1.03-0.02 2.05-0.04 3.11-0.05 2.63 0.02 5.04 0.09 7.61 0.64 2.19 2.34 2.19 2.34 3 5-0.38 3.19-0.38 3.19-2 6-5.24 1.98-10 2.3-15.6 2.27h-2.41c-1.68 0-3.35 0-5.03-0.01-2.55-0.01-5.1 0-7.65 0.01h-4.91c-0.75 0-1.51 0-2.29 0.01-4.41-0.04-8.08-0.51-12.1-2.28-1.39-2.77-1.19-4.93-1-8l2-3z" fill="#000202"/>
<path transform="translate(1133,842)" d="m0 0h24l-1 10c-5.62 0.25-5.62 0.25-9-2-0.69-1.66-1.36-3.32-2-5l-2-1v14h7c0.99 0.33 1.98 0.66 3 1l-1 3c-2.97 0.33-5.94 0.66-9 1v13h3l2-6c6.15-0.88 6.15-0.88 8-1 1 1 1 1 1.13 2.81 0 0.72 0 1.45-0.01 2.19 0.01 1.08 0.01 1.08 0.01 2.19-0.13 1.81-0.13 1.81-1.13 2.81-1.71 0.09-3.42 0.11-5.13 0.1-0.93 0-1.86-0.01-2.82-0.01-1.79-0.01-1.79-0.01-3.61-0.03-3.78-0.02-7.55-0.04-11.4-0.06v-37z" fill="#000202"/>
<path transform="translate(758,842)" d="m0 0h23v10c-6.75 0.12-6.75 0.12-9-1-0.41-2.32-0.74-4.66-1-7h-3v14h8l1 4c-3.96 0.5-3.96 0.5-8 1l-1 13c0.99 0.33 1.98 0.66 3 1l1-7c2.97-0.33 5.94-0.66 9-1v10h-23v-37z" fill="#000202"/>
<path transform="translate(562,842)" d="m0 0h23v10c-3.38 0.12-3.38 0.12-7 0-2.36-2.36-2.49-3.78-3-7h-2l-1 13h9l1 3c-1 1-1 1-3.07 1.1-3.46-0.05-3.46-0.05-6.93-0.1l1 14h2l2-6c3.96-0.5 3.96-0.5 8-1v10h-23v-37z" fill="#000202"/>
<path transform="translate(887,842)" d="m0 0c5.32-0.15 5.32-0.15 10.8-0.31 1.67-0.07 1.67-0.07 3.37-0.14 7.17-0.1 7.17-0.1 10.6 2.54 2.37 5.26 1.54 10.2 1.31 15.9l-16 4v15h-10v-37zm10 3c-0.03 2.48-0.05 4.96-0.06 7.44-0.01 0.7-0.02 1.41-0.03 2.14-0.01 1.81 0.04 3.61 0.09 5.42 1.06 1.28 1.06 1.28 3.5 1.12 2.44 0.16 2.44 0.16 3.5-1.12-0.09-2.54-0.24-5.04-0.44-7.56-0.05-0.71-0.1-1.42-0.16-2.16-0.13-1.76-0.26-3.52-0.4-5.28-3-1.33-3-1.33-6 0z" fill="#000202"/>
<path transform="translate(1080 842)" d="m0 0c1.21-0.01 2.43-0.01 3.68-0.02 3.48 0.27 6.87 0.7 9.44 3.27 0.05 2.33 0.05 4.67 0 7-2.81 0.31-2.81 0.31-6 0-1.88-2.39-3-3.92-3-7-1.98 0.33-3.96 0.66-6 1-0.32 5.85-0.32 5.85 2 11 2.75 1.2 5.5 1.95 8.38 2.78 3.3 1.54 4.19 2.9 5.62 6.22 0.26 2.32 0.26 2.32 0 4.56-0.09 1.12-0.09 1.12-0.18 2.26-1.24 3.33-2.75 4.39-5.82 6.18-3.05 0.54-6.02 0.51-9.12 0.44-0.81 0-1.62 0.01-2.46 0.02-5.88-0.06-5.88-0.06-8.16-1.76-2.01-2.72-1.44-5.43-1.26-8.7h9c0.67 2.31 1.32 4.62 2 7h4c1.25-2.49 1.14-4.23 1.13-7 0-0.89 0.01-1.77 0.01-2.69 0.02-2.34 0.02-2.34-1.14-4.31-1.95-0.5-1.95-0.5-4.24-0.81-4.58-0.94-6.9-2.35-9.76-6.19-1.42-3.46-1.12-4.67 0.26-8.19 3.15-5.07 5.99-5.08 11.6-5.06z" fill="#000202"/>
<path transform="translate(690,842)" d="m0 0h30l-1 10-4-1c-0.7-1.99-1.37-3.99-2-6-0.99-0.33-1.98-0.66-3-1 0.01 0.68 0.02 1.37 0.04 2.07 0.09 11-0.49 22-1.04 32.9h-9l-1-34h-2l-2 6h-5v-9z" fill="#000202"/>
<path transform="translate(199 886)" d="m0 0c0.72-0.01 1.44-0.01 2.19-0.02 1.52-0.01 3.04 0 4.56 0.01 2.34 0.01 4.66-0.02 7-0.06 1.48 0 2.96 0 4.44 0.01 1.04-0.02 1.04-0.02 2.11-0.04 1.97 0.04 1.97 0.04 5.29 0.67 1.98 2.37 1.98 2.37 3 5-0.25 2.72-0.78 4.56-2 7-6.92 1.11-13.8 1.18-20.8 1.18-1.02 0.02-2.04 0.03-3.1 0.04-0.98 0-1.97 0-2.98 0.01-0.89 0-1.77 0.01-2.68 0.01-2.65-0.27-4.24-0.74-6.43-2.24-0.97-3.52-1.55-5.83 0.04-9.19 2.86-2.64 5.67-2.41 9.37-2.38z" fill="#000202"/>
<path transform="translate(1018,842)" d="m0 0h10v37h-10v-37z" fill="#000202"/>
<path transform="translate(213 685)" d="m0 0c1.84-0.04 1.84-0.04 3.71-0.08 3.54 0.35 4.95 0.75 7.35 3.33 0.74 5.91 0.74 5.91-1.13 8.67-2.69 1.91-4.97 1.92-8.24 2.14-1.12 0.09-2.25 0.18-3.4 0.27-4.39-0.11-7.11-0.97-10.2-4.08-0.34-4.05-0.3-5.55 2-9 3.47-1.15 6.29-1.2 9.94-1.25z" fill="#000202"/>
<path transform="translate(234,829)" d="m0 0c2.62 1.62 2.62 1.62 4 4 0.5 3.06 0.5 3.06 0 6-2.9 2.8-5.01 3.41-9 3.38-0.85 0-1.69 0.01-2.56 0.02-2.93-0.48-4.32-1.35-6.44-3.4-0.6-3.51-0.41-5.29 1.38-8.38 4.06-2.51 7.97-2.38 12.6-1.62z" fill="#000202"/>
</svg>
